<svg xmlns="http://www.w3.org/2000/svg" viewBox="0 -0.5 48 48" shape-rendering="crispEdges">

<path stroke="#6699ff" d="M19 1h3M17 2h2M16 3h1M25 5h2M27 6h1M28 7h1" />
<path stroke="#66ccff" d="M22 1h3M25 2h2M18 3h1M26 3h1M15 4h1M17 4h1M19 4h1M21 4h1M24 4h1M14 5h5M20 5h1M22 5h1M13 6h1M15 6h7M14 7h1M16 7h1M18 7h1M20 7h1M15 8h1M17 8h1M19 8h1M33 31h1M35 32h1M36 33h1M34 34h2M37 34h1M39 34h1M33 35h4M38 35h1M40 35h1M32 36h6M39 36h1M41 36h1M31 37h1M33 37h1M35 37h7M32 38h1M34 38h1M36 38h1M38 38h1M40 38h2M35 39h1M37 39h1M41 39h1" />
<path stroke="#66ffff" d="M19 2h6M17 3h1M19 3h7M16 4h1M18 4h1M20 4h1M22 4h2M19 5h1M21 5h1M34 31h8M34 32h1M36 32h6M35 33h1M37 33h5M36 34h1M38 34h1M40 34h2M37 35h1M39 35h1M41 35h1M38 36h1M40 36h1" />
<path stroke="#3366ff" d="M15 3h1M14 4h1M27 5h1M26 6h1M28 6h1M29 8h1M10 10h1M8 11h2M11 11h1M13 11h1M15 11h1M9 12h2M12 12h1M14 12h1M8 13h1M10 13h4M9 14h1M11 14h1M13 14h1M10 15h1M12 15h1M13 16h1M38 39h1M18 40h1M28 40h1M37 40h1M27 41h1M29 41h1M36 41h1M19 42h1M26 42h3M30 42h1M32 42h1M34 42h2M20 43h1M26 43h4M31 43h1M33 43h1M27 44h6M26 45h1M28 45h1M30 45h1" />
<path stroke="#3300cc" d="M27 3h1M28 4h1M13 5h1M28 5h2M12 6h1M23 6h3M29 6h1M5 7h1M11 7h1M26 7h2M29 7h2M5 8h1M10 8h1M28 8h1M5 9h2M5 10h3M5 11h3M5 12h4M5 13h3M9 13h1M5 14h4M10 14h1M12 14h1M5 15h5M11 15h1M5 16h8M5 17h10M31 30h11M32 31h1M33 32h1M34 33h1M33 34h1M32 35h1M31 36h1M30 37h1M29 38h1M28 39h1M19 40h1M27 40h1M17 41h2M20 41h2M26 41h1M18 42h1M21 42h5M18 43h2M22 43h1M25 43h1M34 43h1M19 44h1M23 44h4M33 44h1M21 45h5M27 45h1M29 45h1M31 45h2M23 46h6" />
<path stroke="#000080" d="M25 4h3M23 5h2M22 6h1M21 7h1M6 8h1M20 8h1M27 8h1M30 8h1M7 9h1M9 9h1M19 9h1M28 9h3M8 10h1M18 10h1M17 11h1M16 12h1M15 13h1M14 14h1M13 15h1M14 16h1M15 17h1M5 18h12M42 30h1M42 31h1M42 32h1M42 33h1M42 34h1M42 35h1M42 36h1M42 37h1M39 38h1M42 38h1M17 39h3M40 39h1M42 39h1M17 40h1M20 40h1M41 40h2M42 41h1M23 43h2M20 44h3M20 45h1M21 46h2M29 46h2M23 47h6" />
<path stroke="#3399ff" d="M14 6h1M12 7h2M15 7h1M17 7h1M19 7h1M13 8h2M16 8h1M18 8h1M14 9h1M16 9h3M15 10h1M17 10h1M16 11h1M32 37h1M34 37h1M30 38h2M33 38h1M35 38h1M37 38h1M30 39h2M33 39h2M36 39h1M33 40h1M35 40h2M34 41h1" />
<path stroke="#0099cc" d="M11 8h2M10 9h4M15 9h1M9 10h1M11 10h4M16 10h1M10 11h1M12 11h1M14 11h1M11 12h1M13 12h1M15 12h1M14 13h1M29 39h1M32 39h1M29 40h4M34 40h1M19 41h1M28 41h1M30 41h4M35 41h1M20 42h1M29 42h1M31 42h1M33 42h1M21 43h1M30 43h1M32 43h1" />
<path stroke="#666666" d="M0 10h5M19 10h28M0 11h1M46 11h1M0 12h1M46 12h1M0 13h1M46 13h1M0 14h1M46 14h1M0 15h1M46 15h1M0 16h1M46 16h1M0 17h1M46 17h1M0 18h1M46 18h1M0 19h1M46 19h1M0 20h1M46 20h1M0 21h1M46 21h1M0 22h1M46 22h1M0 23h1M46 23h1M0 24h1M46 24h1M0 25h1M46 25h1M0 26h1M46 26h1M0 27h1M46 27h1M0 28h1M46 28h1M0 29h1M46 29h1M0 30h1M46 30h1M0 31h1M46 31h1M0 32h1M46 32h1M0 33h1M46 33h1M0 34h1M46 34h1M0 35h1M46 35h1M0 36h1M46 36h1M0 37h30M43 37h4" />
<path stroke="#000000" d="M47 10h1M47 11h1M47 12h1M47 13h1M47 14h1M47 15h1M47 16h1M47 17h1M47 18h1M47 19h1M47 20h1M47 21h1M47 22h1M47 23h1M47 24h1M47 25h1M47 26h1M47 27h1M47 28h1M47 29h1M47 30h1M47 31h1M47 32h1M47 33h1M47 34h1M47 35h1M47 36h1M47 37h1M0 38h29M43 38h5" />
<path stroke="#cccccc" d="M1 11h4M18 11h28M1 12h1M1 13h1M1 14h1M1 15h1M1 16h1M1 17h1M1 18h1M1 19h1M1 20h1M1 21h1M1 22h1M1 23h1M1 24h1M1 25h1M1 26h1M1 27h1M1 28h1M1 29h1M1 30h1M1 31h1M1 32h1M1 33h1M1 34h1M1 35h1M1 36h1" />
<path stroke="#ffffff" d="M2 12h3M17 12h16M34 12h1M36 12h1M38 12h1M40 12h1M2 13h3M16 13h18M35 13h1M37 13h1M39 13h1M2 14h3M15 14h17M33 14h2M36 14h1M2 15h3M14 15h16M31 15h3M35 15h1M37 15h1M2 16h3M15 16h17M33 16h4M2 17h3M16 17h13M30 17h1M32 17h1M34 17h1M2 18h3M17 18h11M29 18h1M31 18h1M33 18h1M2 19h27M30 19h1M32 19h1M34 19h1M2 20h23M26 20h1M28 20h2M31 20h1M33 20h1M2 21h24M27 21h1M29 21h2M32 21h1M2 22h21M24 22h1M26 22h1M28 22h1M30 22h1M2 23h18M21 23h1M23 23h1M25 23h1M27 23h1M29 23h1M2 24h17M2 25h17M2 26h15M18 26h2M21 26h1M24 26h2M2 27h17M2 28h15M18 28h1M2 29h12M15 29h1M17 29h1M19 29h1M21 29h1M2 30h13M16 30h1M18 30h1M2 31h9M12 31h1M14 31h2M17 31h1M2 32h10M13 32h1M15 32h2M18 32h1M2 33h9M12 33h1M14 33h1M16 33h2M2 34h8M11 34h1M13 34h1M15 34h1M2 35h7M10 35h3M14 35h1M16 35h1M2 36h5M9 36h1M11 36h1M13 36h1M15 36h1" />
<path stroke="#ffffcc" d="M33 12h1M35 12h1M37 12h1M39 12h1M41 12h5M34 13h1M36 13h1M38 13h1M40 13h6M32 14h1M35 14h1M37 14h1M44 14h2M30 15h1M34 15h1M36 15h1M44 15h2M32 16h1M37 16h1M44 16h2M29 17h1M31 17h1M33 17h1M35 17h3M44 17h2M28 18h1M30 18h1M32 18h1M34 18h4M44 18h2M29 19h1M31 19h1M33 19h1M35 19h3M44 19h2M25 20h1M27 20h1M30 20h1M32 20h1M34 20h12M26 21h1M28 21h1M31 21h1M33 21h13M23 22h1M25 22h1M27 22h1M29 22h1M31 22h15M20 23h1M22 23h1M24 23h1M26 23h1M28 23h1M30 23h16M43 24h3M43 25h3M17 26h1M20 26h1M22 26h2M26 26h20M43 27h3M17 28h1M43 28h3M14 29h1M16 29h1M18 29h1M20 29h1M22 29h24M15 30h1M17 30h1M43 30h3M11 31h1M13 31h1M16 31h1M18 31h1M43 31h3M12 32h1M14 32h1M17 32h1M19 32h14M43 32h3M11 33h1M13 33h1M15 33h1M18 33h16M43 33h3M10 34h1M12 34h1M14 34h1M16 34h17M43 34h3M9 35h1M13 35h1M15 35h1M17 35h15M43 35h3M7 36h2M10 36h1M12 36h1M14 36h1M16 36h15M43 36h3" />
<path stroke="#ff0066" d="M38 14h3M38 15h2M38 16h1" />
<path stroke="#cc0033" d="M41 14h1M40 15h1M39 16h1M38 17h1" />
<path stroke="#cc0000" d="M42 14h2M41 15h2M40 16h2M39 17h2M38 18h2M38 19h1" />
<path stroke="#990000" d="M43 15h1M42 16h2M41 17h3M40 18h4M39 19h5" />
<path stroke="#003366" d="M19 24h24M19 27h24M19 30h12" />
<path stroke="#999999" d="M19 25h24M19 28h24M19 31h13" />
</svg>